<svg width="32" height="32" viewBox="0 0 32 32" fill="none" xmlns="http://www.w3.org/2000/svg">
<g clip-path="url(#clip0_128_1259)">
<path d="M32 16C32 7.37898 24.8366 0.390259 16 0.390259C7.16344 0.390259 0 7.37898 0 16C0 23.7913 5.85097 30.2491 13.5 31.4201V20.5122H9.4375V16H13.5V12.561C13.5 8.6488 15.8887 6.48782 19.5434 6.48782C21.294 6.48782 23.125 6.7927 23.125 6.7927V10.6342H21.1074C19.1198 10.6342 18.5 11.8374 18.5 13.0719V16H22.9375L22.2281 20.5122H18.5V31.4201C26.149 30.2491 32 23.7913 32 16Z" fill="#FFE30F"/>
<path d="M22.2281 20.5122L22.9375 16H18.5V13.0718C18.5 11.8374 19.1198 10.6341 21.1074 10.6341H23.125V6.79267C23.125 6.79267 21.294 6.48779 19.5434 6.48779C15.8887 6.48779 13.5 8.64877 13.5 12.561V16H9.4375V20.5122H13.5V31.4201C14.3146 31.5448 15.1495 31.6097 16 31.6097C16.8505 31.6097 17.6854 31.5448 18.5 31.4201V20.5122H22.2281Z" fill="black"/>
</g>
<defs>
<clipPath id="clip0_128_1259">
<rect width="32" height="31.2195" fill="white" transform="translate(0 0.390259)"/>
</clipPath>
</defs>
</svg>
