<svg width="32" height="32" viewBox="0 0 32 32" fill="none" xmlns="http://www.w3.org/2000/svg">
<path fill-rule="evenodd" clip-rule="evenodd" d="M7.78379 16C7.78379 11.573 11.4623 7.9842 16 7.9842C20.5377 7.9842 24.2162 11.573 24.2162 16C24.2162 20.4271 20.5377 24.0158 16 24.0158C11.4623 24.0158 7.78379 20.4271 7.78379 16ZM16 21.2033C13.0545 21.2033 10.6667 18.8737 10.6667 16C10.6667 13.1263 13.0545 10.7968 16 10.7968C18.9455 10.7968 21.3333 13.1263 21.3333 16C21.3333 18.8737 18.9455 21.2033 16 21.2033Z" fill="url(#paint0_linear_128_1263)"/>
<path fill-rule="evenodd" clip-rule="evenodd" d="M7.78379 16C7.78379 11.573 11.4623 7.9842 16 7.9842C20.5377 7.9842 24.2162 11.573 24.2162 16C24.2162 20.4271 20.5377 24.0158 16 24.0158C11.4623 24.0158 7.78379 20.4271 7.78379 16ZM16 21.2033C13.0545 21.2033 10.6667 18.8737 10.6667 16C10.6667 13.1263 13.0545 10.7968 16 10.7968C18.9455 10.7968 21.3333 13.1263 21.3333 16C21.3333 18.8737 18.9455 21.2033 16 21.2033Z" fill="url(#paint1_radial_128_1263)"/>
<path d="M24.5408 9.54065C25.6012 9.54065 26.4609 8.70204 26.4609 7.66751C26.4609 6.63297 25.6012 5.7943 24.5408 5.7943C23.4805 5.7943 22.6208 6.63297 22.6208 7.66751C22.6208 8.70204 23.4805 9.54065 24.5408 9.54065Z" fill="url(#paint2_linear_128_1263)"/>
<path d="M24.5408 9.54065C25.6012 9.54065 26.4609 8.70204 26.4609 7.66751C26.4609 6.63297 25.6012 5.7943 24.5408 5.7943C23.4805 5.7943 22.6208 6.63297 22.6208 7.66751C22.6208 8.70204 23.4805 9.54065 24.5408 9.54065Z" fill="url(#paint3_radial_128_1263)"/>
<path fill-rule="evenodd" clip-rule="evenodd" d="M16 0.390259C11.6547 0.390259 11.1098 0.408228 9.40322 0.484195C7.70021 0.559976 6.53711 0.823876 5.51939 1.20978C4.46725 1.60864 3.57497 2.14239 2.68542 3.01018C1.79593 3.87803 1.24884 4.74855 0.840011 5.77503C0.444458 6.76793 0.17396 7.90266 0.0962843 9.56413C0.0184185 11.2291 0 11.7607 0 16C0 20.2394 0.0184185 20.771 0.0962843 22.4359C0.17396 24.0974 0.444458 25.2321 0.840011 26.225C1.24884 27.2515 1.79593 28.122 2.68542 28.9899C3.57497 29.8576 4.46725 30.3914 5.51939 30.7903C6.53711 31.1762 7.70021 31.4401 9.40322 31.5158C11.1098 31.5918 11.6547 31.6098 16 31.6098C20.3453 31.6098 20.8902 31.5918 22.5968 31.5158C24.2998 31.4401 25.4629 31.1762 26.4806 30.7903C27.5327 30.3914 28.425 29.8576 29.3146 28.9899C30.2041 28.122 30.7512 27.2515 31.1601 26.225C31.5555 25.2321 31.826 24.0974 31.9037 22.4359C31.9816 20.771 32 20.2394 32 16C32 11.7607 31.9816 11.2291 31.9037 9.56413C31.826 7.90266 31.5555 6.76793 31.1601 5.77503C30.7512 4.74855 30.2041 3.87803 29.3146 3.01018C28.425 2.14239 27.5327 1.60864 26.4806 1.20978C25.4629 0.823876 24.2998 0.559976 22.5968 0.484195C20.8902 0.408228 20.3453 0.390259 16 0.390259ZM16 3.20282C20.2722 3.20282 20.7782 3.21875 22.4654 3.29385C24.0254 3.36324 24.8725 3.61754 25.4363 3.83131C26.1832 4.11448 26.7162 4.45274 27.276 4.99901C27.836 5.54521 28.1827 6.0652 28.4729 6.79383C28.692 7.34387 28.9527 8.1704 29.0238 9.69234C29.1008 11.3383 29.1171 11.832 29.1171 16C29.1171 20.168 29.1008 20.6617 29.0238 22.3077C28.9527 23.8296 28.692 24.6562 28.4729 25.2062C28.1827 25.9348 27.836 26.4548 27.276 27.001C26.7162 27.5473 26.1832 27.8855 25.4363 28.1687C24.8725 28.3825 24.0254 28.6368 22.4654 28.7062C20.7785 28.7813 20.2725 28.7972 16 28.7972C11.7275 28.7972 11.2216 28.7813 9.53463 28.7062C7.97465 28.6368 7.12746 28.3825 6.56366 28.1687C5.81682 27.8855 5.28383 27.5473 4.72397 27.001C4.16411 26.4548 3.81733 25.9348 3.52708 25.2062C3.30797 24.6562 3.04731 23.8296 2.97618 22.3077C2.8992 20.6617 2.88288 20.168 2.88288 16C2.88288 11.832 2.8992 11.3383 2.97618 9.69234C3.04731 8.1704 3.30797 7.34387 3.52708 6.79383C3.81733 6.0652 4.16405 5.54521 4.72397 4.99901C5.28383 4.45274 5.81682 4.11448 6.56366 3.83131C7.12746 3.61754 7.97465 3.36324 9.53463 3.29385C11.2218 3.21875 11.7278 3.20282 16 3.20282Z" fill="url(#paint4_linear_128_1263)"/>
<path fill-rule="evenodd" clip-rule="evenodd" d="M16 0.390259C11.6547 0.390259 11.1098 0.408228 9.40322 0.484195C7.70021 0.559976 6.53711 0.823876 5.51939 1.20978C4.46725 1.60864 3.57497 2.14239 2.68542 3.01018C1.79593 3.87803 1.24884 4.74855 0.840011 5.77503C0.444458 6.76793 0.17396 7.90266 0.0962843 9.56413C0.0184185 11.2291 0 11.7607 0 16C0 20.2394 0.0184185 20.771 0.0962843 22.4359C0.17396 24.0974 0.444458 25.2321 0.840011 26.225C1.24884 27.2515 1.79593 28.122 2.68542 28.9899C3.57497 29.8576 4.46725 30.3914 5.51939 30.7903C6.53711 31.1762 7.70021 31.4401 9.40322 31.5158C11.1098 31.5918 11.6547 31.6098 16 31.6098C20.3453 31.6098 20.8902 31.5918 22.5968 31.5158C24.2998 31.4401 25.4629 31.1762 26.4806 30.7903C27.5327 30.3914 28.425 29.8576 29.3146 28.9899C30.2041 28.122 30.7512 27.2515 31.1601 26.225C31.5555 25.2321 31.826 24.0974 31.9037 22.4359C31.9816 20.771 32 20.2394 32 16C32 11.7607 31.9816 11.2291 31.9037 9.56413C31.826 7.90266 31.5555 6.76793 31.1601 5.77503C30.7512 4.74855 30.2041 3.87803 29.3146 3.01018C28.425 2.14239 27.5327 1.60864 26.4806 1.20978C25.4629 0.823876 24.2998 0.559976 22.5968 0.484195C20.8902 0.408228 20.3453 0.390259 16 0.390259ZM16 3.20282C20.2722 3.20282 20.7782 3.21875 22.4654 3.29385C24.0254 3.36324 24.8725 3.61754 25.4363 3.83131C26.1832 4.11448 26.7162 4.45274 27.276 4.99901C27.836 5.54521 28.1827 6.0652 28.4729 6.79383C28.692 7.34387 28.9527 8.1704 29.0238 9.69234C29.1008 11.3383 29.1171 11.832 29.1171 16C29.1171 20.168 29.1008 20.6617 29.0238 22.3077C28.9527 23.8296 28.692 24.6562 28.4729 25.2062C28.1827 25.9348 27.836 26.4548 27.276 27.001C26.7162 27.5473 26.1832 27.8855 25.4363 28.1687C24.8725 28.3825 24.0254 28.6368 22.4654 28.7062C20.7785 28.7813 20.2725 28.7972 16 28.7972C11.7275 28.7972 11.2216 28.7813 9.53463 28.7062C7.97465 28.6368 7.12746 28.3825 6.56366 28.1687C5.81682 27.8855 5.28383 27.5473 4.72397 27.001C4.16411 26.4548 3.81733 25.9348 3.52708 25.2062C3.30797 24.6562 3.04731 23.8296 2.97618 22.3077C2.8992 20.6617 2.88288 20.168 2.88288 16C2.88288 11.832 2.8992 11.3383 2.97618 9.69234C3.04731 8.1704 3.30797 7.34387 3.52708 6.79383C3.81733 6.0652 4.16405 5.54521 4.72397 4.99901C5.28383 4.45274 5.81682 4.11448 6.56366 3.83131C7.12746 3.61754 7.97465 3.36324 9.53463 3.29385C11.2218 3.21875 11.7278 3.20282 16 3.20282Z" fill="url(#paint5_radial_128_1263)"/>
<defs>
<linearGradient id="paint0_linear_128_1263" x1="1.8671" y1="2.03156" x2="11.4993" y2="40.2217" gradientUnits="userSpaceOnUse">
<stop stop-color="#4E60D3"/>
<stop offset="0.142763" stop-color="#913BAF"/>
<stop offset="0.761458" stop-color="#D52D88"/>
<stop offset="1" stop-color="#F26D4F"/>
</linearGradient>
<radialGradient id="paint1_radial_128_1263" cx="0" cy="0" r="1" gradientUnits="userSpaceOnUse" gradientTransform="translate(9.68779 31.6098) rotate(31.526) scale(29.6816 21.1283)">
<stop stop-color="#FED276"/>
<stop offset="0.17024" stop-color="#FFE30F"/>
<stop offset="0.454081" stop-color="#FFE30F"/>
<stop offset="1" stop-color="#FFE30F"/>
</radialGradient>
<linearGradient id="paint2_linear_128_1263" x1="1.8671" y1="2.03156" x2="11.4993" y2="40.2217" gradientUnits="userSpaceOnUse">
<stop stop-color="#4E60D3"/>
<stop offset="0.142763" stop-color="#913BAF"/>
<stop offset="0.761458" stop-color="#D52D88"/>
<stop offset="1" stop-color="#F26D4F"/>
</linearGradient>
<radialGradient id="paint3_radial_128_1263" cx="0" cy="0" r="1" gradientUnits="userSpaceOnUse" gradientTransform="translate(9.68779 31.6098) rotate(31.526) scale(29.6816 21.1283)">
<stop stop-color="#FED276"/>
<stop offset="0.17024" stop-color="#FFE30F"/>
<stop offset="0.454081" stop-color="#FFE30F"/>
<stop offset="1" stop-color="#FFE30F"/>
</radialGradient>
<linearGradient id="paint4_linear_128_1263" x1="1.8671" y1="2.03156" x2="11.4993" y2="40.2217" gradientUnits="userSpaceOnUse">
<stop stop-color="#4E60D3"/>
<stop offset="0.142763" stop-color="#913BAF"/>
<stop offset="0.761458" stop-color="#D52D88"/>
<stop offset="1" stop-color="#F26D4F"/>
</linearGradient>
<radialGradient id="paint5_radial_128_1263" cx="0" cy="0" r="1" gradientUnits="userSpaceOnUse" gradientTransform="translate(9.68779 31.6098) rotate(31.526) scale(29.6816 21.1283)">
<stop stop-color="#FED276"/>
<stop offset="0.17024" stop-color="#FFE30F"/>
<stop offset="0.454081" stop-color="#FFE30F"/>
<stop offset="1" stop-color="#FFE30F"/>
</radialGradient>
</defs>
</svg>
