<svg width="32" height="32" viewBox="0 0 32 32" fill="none" xmlns="http://www.w3.org/2000/svg">
<path d="M16 31.6098C24.8366 31.6098 32 24.621 32 16C32 7.37898 24.8366 0.390259 16 0.390259C7.16344 0.390259 0 7.37898 0 16C0 24.621 7.16344 31.6098 16 31.6098Z" fill="url(#paint0_linear_128_1264)"/>
<path fill-rule="evenodd" clip-rule="evenodd" d="M7.24236 15.8353C11.9067 13.8527 15.017 12.5456 16.5732 11.9141C21.0166 10.111 21.9399 9.79781 22.5417 9.78746C22.674 9.78519 22.97 9.81719 23.1617 9.96895C23.3235 10.0971 23.3681 10.2702 23.3894 10.3917C23.4107 10.5132 23.4372 10.7899 23.4161 11.0062C23.1753 13.4745 22.1335 19.4643 21.6034 22.2288C21.3791 23.3986 20.9375 23.7908 20.51 23.8292C19.5808 23.9126 18.8752 23.2301 17.9753 22.6546C16.5671 21.754 15.7716 21.1934 14.4047 20.3146C12.825 19.299 13.849 18.7408 14.7493 17.8285C14.9849 17.5898 19.0787 13.9569 19.158 13.6274C19.1679 13.5861 19.1771 13.4325 19.0835 13.3514C18.99 13.2703 18.8519 13.298 18.7522 13.3201C18.611 13.3513 16.3614 14.802 12.0034 17.672C11.3648 18.0998 10.7864 18.3082 10.2682 18.2973C9.69694 18.2853 8.59802 17.9822 7.78109 17.7231C6.77909 17.4053 5.98272 17.2373 6.05206 16.6977C6.08818 16.4166 6.48495 16.1291 7.24236 15.8353Z" fill="black"/>
<defs>
<linearGradient id="paint0_linear_128_1264" x1="16" y1="0.390259" x2="16" y2="31.3782" gradientUnits="userSpaceOnUse">
<stop stop-color="#FFE30F"/>
<stop offset="1" stop-color="#B19D00"/>
</linearGradient>
</defs>
</svg>
