<svg width="120" height="48" viewBox="0 0 120 48" fill="none" xmlns="http://www.w3.org/2000/svg">
<path d="M44.6464 23.6464C44.4512 23.8417 44.4512 24.1583 44.6464 24.3536L47.8284 27.5355C48.0237 27.7308 48.3403 27.7308 48.5355 27.5355C48.7308 27.3403 48.7308 27.0237 48.5355 26.8284L45.7071 24L48.5355 21.1716C48.7308 20.9763 48.7308 20.6597 48.5355 20.4645C48.3403 20.2692 48.0237 20.2692 47.8284 20.4645L44.6464 23.6464ZM73 23.5L45 23.5V24.5L73 24.5V23.5Z" fill="white"/>
<rect x="1" y="-1" width="118" height="46" transform="matrix(1 0 0 -1 0 46)" stroke="#FFE30F" stroke-width="2"/>
</svg>
