<svg width="66" height="65" viewBox="0 0 66 65" fill="none" xmlns="http://www.w3.org/2000/svg">
<path d="M34.4965 33.3828L29.1394 38.7401C32.4481 40.997 36.174 42.571 40.0987 43.3697C44.0234 44.1685 48.0681 44.176 51.9957 43.3918L50.5492 36.1392C45.0416 37.2386 39.322 36.2565 34.4965 33.3828ZM19.8181 60.3934L20.5813 60.2346C20.9373 60.1603 21.2751 60.0167 21.5754 59.8118C21.8758 59.6069 22.1329 59.3448 22.3319 59.0405C22.5309 58.7362 22.668 58.3957 22.7353 58.0384C22.8027 57.6811 22.7989 57.314 22.7243 56.9582L21.5101 51.1511C21.4475 50.8513 21.4606 50.5407 21.5481 50.2472C21.6355 49.9537 21.7947 49.6867 22.0112 49.4701L26.8995 44.5817C27.3168 44.1645 27.5512 43.5986 27.5512 43.0085C27.5512 42.4185 27.3168 41.8526 26.8995 41.4353L24.8998 39.4356L34.0333 30.3021L28.2239 24.4927L24.1265 28.59C23.8824 28.3499 23.5534 28.2161 23.2111 28.2175C22.8687 28.2189 22.5408 28.3555 22.2988 28.5976C22.0567 28.8397 21.9201 29.1676 21.9186 29.5099C21.9172 29.8522 22.0511 30.1813 22.2911 30.4253L23.0033 31.1375L10.2944 43.8462L10.2957 47.1581L14.1896 50.9589C16.1805 50.2188 16.1594 51.2865 16.6404 53.5851L17.7859 59.0613C17.832 59.2823 17.9211 59.4921 18.0483 59.6787C18.1755 59.8653 18.3381 60.025 18.527 60.1488C18.7159 60.2725 18.9274 60.3577 19.1492 60.3997C19.3711 60.4417 19.5991 60.4395 19.8201 60.3934H19.8181ZM19.4559 46.8771C19.2134 46.6346 19.0771 46.3056 19.0771 45.9627C19.0771 45.6197 19.2134 45.2908 19.4559 45.0483L22.0201 42.4841C22.2626 42.2416 22.5915 42.1054 22.9344 42.1054C23.2773 42.1054 23.6062 42.2416 23.8487 42.4841L24.7686 43.404C25.0111 43.6465 25.1474 43.9754 25.1474 44.3184C25.1474 44.6613 25.0111 44.9903 24.7686 45.2328L22.2011 47.8003C21.9586 48.0427 21.6297 48.1789 21.2868 48.1789C20.9439 48.1789 20.615 48.0427 20.3725 47.8003L19.4536 46.8815L19.4559 46.8771ZM31.6868 24.445C31.6348 24.3919 31.5872 24.3347 31.5446 24.2738C31.3459 23.9737 31.2596 23.6131 31.3008 23.2556C31.3421 22.8981 31.5083 22.5666 31.7701 22.3196L42.2635 11.8262C42.8734 11.2163 43.8244 11.1785 44.3887 11.7429L47.5295 14.8837C48.0673 15.4214 48.0617 16.3179 47.5173 16.9335L37.6696 28.0678C37.1262 28.6823 36.2442 28.7955 35.6453 28.3678C35.5845 28.3252 35.5272 28.2777 35.4742 28.2256L31.6912 24.4427L31.6868 24.445ZM53.7055 4.57031L55.7054 6.57008L53.5734 7.97773L48.8694 12.6817L47.5929 11.4052L52.298 6.70008L53.7055 4.57031ZM45.7075 7.65108C45.5788 7.52233 45.5064 7.3477 45.5064 7.16562C45.5064 6.98353 45.5788 6.8089 45.7075 6.68015L46.1431 6.2447C46.2068 6.18093 46.2825 6.13034 46.3658 6.09583C46.4491 6.06131 46.5384 6.04355 46.6286 6.04355C46.7188 6.04355 46.8081 6.06131 46.8914 6.09583C46.9747 6.13034 47.0504 6.18093 47.1141 6.2447L48.6694 7.79987L47.2629 9.20651L45.7075 7.65108Z" fill="#FFE30F"/>
</svg>
