<svg width="66" height="65" viewBox="0 0 66 65" fill="none" xmlns="http://www.w3.org/2000/svg">
<path d="M46.5415 59.5833C45.7742 59.5833 45.1305 59.3233 44.6105 58.8033C44.0905 58.2833 43.8314 57.6405 43.8332 56.875V53.4896C42.0728 52.9027 40.4929 52.0108 39.0936 50.8137C37.6943 49.6166 36.5884 48.1839 35.7759 46.5156C35.4148 45.8385 35.4148 45.1614 35.7759 44.4843C36.137 43.8073 36.6787 43.3107 37.4009 42.9948C38.0328 42.7239 38.6648 42.7465 39.2967 43.0625C39.9287 43.3784 40.4252 43.8524 40.7863 44.4843C41.5085 45.7934 42.5016 46.8316 43.7655 47.5989C45.0294 48.3663 46.4061 48.75 47.8957 48.75H56.0207C57.1492 48.75 58.1088 49.1454 58.8996 49.9362C59.6905 50.7271 60.085 51.6858 60.0832 52.8125V56.875C60.0832 57.6423 59.8232 58.286 59.3032 58.806C58.7832 59.326 58.1404 59.5851 57.3749 59.5833H46.5415ZM51.9582 46.0416C50.4686 46.0416 49.193 45.5108 48.1313 44.4491C47.0696 43.3875 46.5397 42.1127 46.5415 40.625C46.5415 39.1354 47.0723 37.8598 48.134 36.7981C49.1957 35.7364 50.4704 35.2065 51.9582 35.2083C53.4478 35.2083 54.7234 35.7391 55.7851 36.8008C56.8467 37.8625 57.3767 39.1372 57.3749 40.625C57.3749 42.1146 56.844 43.3902 55.7824 44.4518C54.7207 45.5135 53.446 46.0434 51.9582 46.0416ZM46.7446 19.0937C42.5016 19.6354 38.8787 21.4184 35.8761 24.4427C32.8735 27.467 31.0796 31.1007 30.4946 35.3437C30.4044 36.1111 30.0884 36.7322 29.5467 37.2071C29.0051 37.6819 28.3505 37.9184 27.5832 37.9166C26.8158 37.9166 26.1721 37.6566 25.6521 37.1366C25.1321 36.6166 24.9182 35.9964 25.0103 35.276C25.6422 29.4982 28.0012 24.6007 32.0871 20.5833C36.1731 16.5659 41.1041 14.2639 46.8801 13.677C47.5571 13.5868 48.1214 13.8016 48.5728 14.3216C49.0242 14.8416 49.2499 15.4844 49.2499 16.25C49.2499 16.9722 49.0124 17.6041 48.5376 18.1458C48.0627 18.6875 47.4651 19.0034 46.7446 19.0937ZM47.1509 30.0625C45.7516 30.4236 44.5328 31.1115 43.4946 32.1262C42.4564 33.1409 41.7568 34.3489 41.3957 35.75C41.2151 36.3819 40.8432 36.901 40.2799 37.3073C39.7165 37.7135 39.0954 37.9166 38.4165 37.9166C37.6492 37.9166 37.0172 37.6792 36.5207 37.2043C36.0242 36.7295 35.821 36.177 35.9113 35.5468C36.4078 32.7031 37.6835 30.2882 39.7382 28.302C41.7929 26.3159 44.2412 25.0746 47.0832 24.5781C47.7151 24.4878 48.2342 24.7027 48.6405 25.2227C49.0467 25.7427 49.2499 26.3629 49.2499 27.0833C49.2499 27.7604 49.0576 28.3815 48.673 28.9466C48.2884 29.5118 47.781 29.8837 47.1509 30.0625ZM8.62485 29.7916C7.85749 29.7916 7.2138 29.5316 6.6938 29.0116C6.1738 28.4916 5.91471 27.8489 5.91651 27.0833V23.0208C5.91651 21.8923 6.31193 20.9327 7.10276 20.1418C7.8936 19.351 8.85235 18.9565 9.97901 18.9583H18.104C19.5936 18.9583 20.9703 18.5746 22.2342 17.8073C23.4981 17.0399 24.4912 16.0017 25.2134 14.6927C25.5745 14.0607 26.071 13.5525 26.703 13.1679C27.3349 12.7833 27.9894 12.7048 28.6665 12.9323C29.4339 13.158 29.9981 13.5868 30.3592 14.2187C30.7203 14.8507 30.7655 15.4826 30.4946 16.1145C29.7273 17.9201 28.6214 19.4774 27.1769 20.7864C25.7325 22.0955 24.0623 23.0659 22.1665 23.6979V27.0833C22.1665 27.8507 21.9074 28.4934 21.3892 29.0116C20.871 29.5298 20.2273 29.7898 19.4582 29.7916H8.62485ZM14.0415 16.25C12.5519 16.25 11.2763 15.7191 10.2146 14.6575C9.15297 13.5958 8.62304 12.3211 8.62485 10.8333C8.62485 9.34371 9.15568 8.06809 10.2173 7.00642C11.279 5.94476 12.5537 5.41483 14.0415 5.41663C15.5311 5.41663 16.8067 5.94746 17.8684 7.00913C18.9301 8.0708 19.46 9.34552 19.4582 10.8333C19.4582 12.3229 18.9273 13.5985 17.8657 14.6602C16.804 15.7218 15.5293 16.2518 14.0415 16.25Z" fill="#FFE600"/>
</svg>
