<svg width="66" height="65" viewBox="0 0 66 65" fill="none" xmlns="http://www.w3.org/2000/svg">
<g clip-path="url(#clip0_256_2770)">
<path d="M33 0.0559082C15.1098 0.0559082 0.550781 14.6098 0.550781 32.5C0.550781 50.3903 15.1098 64.9442 33 64.9442C50.8902 64.9442 65.4492 50.3903 65.4492 32.5C65.4492 14.6098 50.8953 0.0559082 33 0.0559082ZM33 61.8211C16.8313 61.8211 3.67891 48.6688 3.67891 32.5051C3.68398 16.3364 16.8313 3.17896 33 3.17896C49.1637 3.17896 62.316 16.3313 62.316 32.5C62.316 48.6637 49.1688 61.8211 33 61.8211Z" fill="#FFE600"/>
<path d="M35.3409 28.143V5.75354H30.664V23.7758L26.5761 16.6918L22.5288 19.0278L28.7952 29.8848C28.3179 30.6465 28.0335 31.5352 28.0335 32.4949C28.0335 35.2422 30.2526 37.4613 32.9999 37.4613C35.7421 37.4613 37.9663 35.2422 37.9663 32.4949C37.9714 30.6059 36.8948 28.9809 35.3409 28.143ZM33.269 34.3434C33.1827 34.3586 33.0913 34.3688 32.9999 34.3688C32.746 34.3688 32.5073 34.318 32.289 34.2266C32.2788 34.2215 32.2687 34.2164 32.2585 34.2164C31.9221 34.0717 31.6354 33.8315 31.4342 33.5255C31.2329 33.2195 31.1258 32.8612 31.1261 32.4949C31.1261 31.459 31.964 30.6262 32.9999 30.6262C34.0358 30.6262 34.8737 31.4641 34.8737 32.4949C34.8737 32.9317 34.7163 33.3328 34.4624 33.6528C34.2694 33.8965 34.0257 34.0946 33.7413 34.2164C33.7312 34.2164 33.721 34.2215 33.7108 34.2266C33.5687 34.2926 33.4214 34.3231 33.269 34.3434Z" fill="#FFE600"/>
<path d="M58.3553 34.3687C59.3902 34.3687 60.2291 33.5321 60.2291 32.5C60.2291 31.4679 59.3902 30.6312 58.3553 30.6312C57.3204 30.6312 56.4814 31.4679 56.4814 32.5C56.4814 33.5321 57.3204 34.3687 58.3553 34.3687Z" fill="#FFE600"/>
<path d="M55.8924 21.4449C56.3211 21.1963 56.634 20.788 56.7624 20.3093C56.8909 19.8306 56.8246 19.3205 56.5779 18.8906C56.4557 18.6774 56.2925 18.4905 56.0978 18.3405C55.9031 18.1906 55.6806 18.0806 55.4433 18.0169C55.2059 17.9532 54.9583 17.937 54.7146 17.9693C54.471 18.0016 54.2362 18.0817 54.0236 18.2051C53.594 18.4529 53.2804 18.8612 53.1518 19.3402C53.0233 19.8193 53.0902 20.3297 53.3381 20.7594C53.5859 21.189 53.9942 21.5026 54.4732 21.6312C54.9522 21.7597 55.4627 21.6927 55.8924 21.4449Z" fill="#FFE600"/>
<path d="M47.2972 11.473C47.8131 10.5791 47.5067 9.43626 46.6128 8.92032C45.719 8.40439 44.5761 8.71077 44.0602 9.60465C43.5442 10.4985 43.8506 11.6414 44.7445 12.1573C45.6383 12.6733 46.7812 12.3669 47.2972 11.473Z" fill="#FFE600"/>
<path d="M21.2553 12.1632C22.1492 11.6473 22.4556 10.5044 21.9397 9.61052C21.4238 8.71663 20.281 8.41021 19.3871 8.92611C18.4932 9.44201 18.1868 10.5849 18.7027 11.4788C19.2186 12.3727 20.3614 12.6791 21.2553 12.1632Z" fill="#FFE600"/>
<path d="M11.9768 18.2C11.5476 17.9525 11.0378 17.8852 10.5591 18.0127C10.0803 18.1402 9.67163 18.4523 9.42246 18.8805C9.29938 19.0931 9.21947 19.328 9.18731 19.5715C9.15516 19.8151 9.17139 20.0626 9.23508 20.2999C9.29876 20.5372 9.40865 20.7596 9.55845 20.9544C9.70824 21.1491 9.895 21.3124 10.108 21.4348C11.0018 21.9528 12.1494 21.6481 12.6623 20.7492C13.1803 19.8606 12.8705 18.718 11.9768 18.2ZM7.64512 30.6313C6.61426 30.6313 5.77637 31.4692 5.77637 32.5C5.77637 33.536 6.61426 34.3688 7.64512 34.3688C8.67598 34.3688 9.51387 33.5309 9.51387 32.4949C9.51387 31.4641 8.67598 30.6313 7.64512 30.6313ZM10.1029 43.5602C9.20918 44.0731 8.90449 45.2207 9.41738 46.1145C9.66599 46.5432 10.0743 46.8561 10.553 46.9846C11.0317 47.113 11.5418 47.0467 11.9717 46.8C12.1851 46.6773 12.3721 46.5137 12.5221 46.3185C12.6721 46.1233 12.7821 45.9004 12.8458 45.6627C12.9095 45.4249 12.9256 45.1769 12.8933 44.9329C12.8609 44.6888 12.7807 44.4536 12.6572 44.2407C12.1443 43.3469 11.0018 43.0422 10.1029 43.5602ZM21.2545 52.8379C21.0418 52.715 20.807 52.6353 20.5634 52.6032C20.3199 52.5712 20.0725 52.5875 19.8352 52.6511C19.598 52.7148 19.3756 52.8246 19.1809 52.9743C18.9861 53.124 18.8228 53.3106 18.7002 53.5235C18.4535 53.9534 18.3872 54.4634 18.5157 54.9421C18.6441 55.4208 18.957 55.8291 19.3857 56.0778C19.5984 56.2006 19.8333 56.2804 20.0768 56.3124C20.3203 56.3445 20.5678 56.3282 20.805 56.2645C21.0423 56.2009 21.2646 56.091 21.4594 55.9414C21.6541 55.7917 21.8175 55.6051 21.94 55.3922C22.458 54.5035 22.1482 53.3559 21.2545 52.8379ZM32.9951 55.9864C31.9592 55.9864 31.1314 56.8192 31.1264 57.8551C31.1264 58.886 31.9643 59.7239 32.9951 59.7239C34.026 59.7239 34.8689 58.886 34.8639 57.8551C34.8645 57.6095 34.8167 57.3662 34.723 57.1392C34.6293 56.9121 34.4917 56.7059 34.318 56.5322C34.1444 56.3585 33.9381 56.2209 33.711 56.1272C33.484 56.0336 33.2407 55.9857 32.9951 55.9864ZM44.7408 52.843C44.5278 52.9654 44.3411 53.1288 44.1914 53.3236C44.0418 53.5185 43.9322 53.7411 43.869 53.9785C43.8057 54.2159 43.7901 54.4635 43.8229 54.707C43.8558 54.9505 43.9365 55.1851 44.0604 55.3973C44.309 55.8261 44.7173 56.1389 45.196 56.2674C45.6747 56.3959 46.1848 56.3295 46.6146 56.0828C46.8275 55.9603 47.0141 55.7969 47.1638 55.6022C47.3135 55.4074 47.4233 55.1851 47.487 54.9478C47.5506 54.7106 47.5669 54.4631 47.5349 54.2196C47.5028 53.9761 47.4231 53.7412 47.3002 53.5285C47.1774 53.3153 47.0137 53.1283 46.8185 52.9784C46.6233 52.8284 46.4005 52.7185 46.1627 52.6548C45.925 52.5911 45.677 52.575 45.433 52.6073C45.189 52.6395 44.9538 52.7197 44.7408 52.843ZM55.8924 43.5602C55.6797 43.4373 55.4449 43.3576 55.2013 43.3255C54.9578 43.2935 54.7103 43.3097 54.4731 43.3734C54.2359 43.4371 54.0135 43.5469 53.8188 43.6966C53.624 43.8463 53.4607 44.0329 53.3381 44.2457C53.2146 44.4583 53.1344 44.6931 53.102 44.9368C53.0696 45.1804 53.0858 45.4281 53.1495 45.6655C53.2132 45.9029 53.3232 46.1253 53.4733 46.3201C53.6233 46.5148 53.8103 46.6779 54.0236 46.8C54.9174 47.3129 56.06 47.0082 56.5779 46.1145C57.0959 45.2258 56.7912 44.0731 55.8924 43.5602Z" fill="#FFE600"/>
</g>
<defs>
<clipPath id="clip0_256_2770">
<rect width="65" height="65" fill="white" transform="translate(0.5)"/>
</clipPath>
</defs>
</svg>
