<svg width="66" height="65" viewBox="0 0 66 65" fill="none" xmlns="http://www.w3.org/2000/svg">
<g clip-path="url(#clip0_243_349)">
<path d="M31.8594 32.6518C39.0063 32.6518 44.7999 26.8582 44.7999 19.7113C44.7999 12.5645 39.0063 6.77081 31.8594 6.77081C24.7126 6.77081 18.9189 12.5645 18.9189 19.7113C18.9189 26.8582 24.7126 32.6518 31.8594 32.6518Z" stroke="#FFE30F" stroke-width="4.0625" stroke-linecap="round" stroke-linejoin="round"/>
<path fill-rule="evenodd" clip-rule="evenodd" d="M11.3335 48.9415C11.33 48.0317 11.5335 47.1331 11.9285 46.3136C13.168 43.8346 16.6634 42.5208 19.5639 41.9258C21.6557 41.4795 23.7764 41.1813 25.9102 41.0334C29.8607 40.6865 33.834 40.6865 37.7847 41.0334C39.9183 41.1829 42.0389 41.4811 44.1311 41.9258C47.0315 42.5208 50.5269 43.7106 51.7665 46.3136C52.5608 47.9841 52.5608 49.9235 51.7665 51.594C50.5269 54.197 47.0315 55.387 44.1311 55.9571C42.0417 56.4219 39.9202 56.7285 37.7847 56.8744C34.5694 57.1469 31.3389 57.1967 28.1165 57.0231C27.3728 57.0231 26.6539 57.0231 25.9102 56.8744C23.7827 56.7304 21.6694 56.4238 19.5887 55.9571C16.6634 55.387 13.1928 54.197 11.9285 51.594C11.5355 50.765 11.3323 49.8588 11.3335 48.9415Z" stroke="#FFE30F" stroke-width="4.0625" stroke-linecap="round" stroke-linejoin="round"/>
</g>
<defs>
<clipPath id="clip0_243_349">
<rect width="65" height="65" fill="white" transform="translate(0.5)"/>
</clipPath>
</defs>
</svg>
